<?xml version="1.0" encoding="UTF-8" standalone="no" ?>
<!DOCTYPE svg PUBLIC "-//W3C//DTD SVG 1.1//EN" "http://www.w3.org/Graphics/SVG/1.1/DTD/svg11.dtd">
<svg xmlns="http://www.w3.org/2000/svg" xmlns:xlink="http://www.w3.org/1999/xlink" version="1.1" width="500" height="500" viewBox="0 0 500 500" xml:space="preserve">
<desc>Created with Fabric.js 4.6.0</desc>
<defs>
</defs>
<g transform="matrix(1.61 0 0 1.67 250 249.8)" id="5ZCRMZFMxd2H0AN7NK_Gm"  >
<path style="stroke: rgb(165,130,122); stroke-width: 0; stroke-dasharray: none; stroke-linecap: butt; stroke-dashoffset: 0; stroke-linejoin: miter; stroke-miterlimit: 4; fill: rgb(17,187,223); fill-rule: nonzero; opacity: 1;" vector-effect="non-scaling-stroke"  transform=" translate(-154.81, -150)" d="M 0 19.90433 C 0 8.911480000000001 8.91147 0.000010000000003174137 19.90432 0.000010000000003174137 L 39.517399999999995 0.000010000000003174137 L 39.517399999999995 300.00001 L -7.105427357601002e-15 300.00001 z M 99.43711 0 C 121.47279 0 139.35682 17.88403 139.35682 39.91971 C 139.35682 61.95539 121.47279 79.83942 99.43710999999999 79.83942 C 77.40142999999999 79.83942 59.51739999999999 61.95539000000001 59.51739999999999 39.91971 C 59.51739999999999 17.884030000000003 77.40142999999999 0 99.43710999999999 0 z M 99.43711 100 C 121.47279 100 139.35682 117.88403 139.35682 139.91971 C 139.35682 161.95539000000002 121.47279 179.83942000000002 99.43710999999999 179.83942000000002 C 77.40142999999999 179.83942000000002 59.51739999999999 161.95539000000002 59.51739999999999 139.91971 C 59.51739999999999 117.88403000000001 77.40142999999999 100 99.43710999999999 100 z M 169.86919 19.94 C 169.86919 8.94715 178.78066 0.03568000000000282 189.77351 0.03568000000000282 L 209.26259 0.03568000000000282 L 209.26259 300.00002 L 169.86919 300.00002 z M 269.24589 0.01813 C 291.28157 0.01813 309.1656 17.90216 309.1656 39.93784 C 309.1656 61.97352 291.28157 79.85755 269.24589 79.85755 C 247.21020999999996 79.85755 229.32617999999997 61.97352000000001 229.32617999999997 39.93784 C 229.32617999999997 17.902160000000002 247.21020999999996 0.018129999999999313 269.24589 0.018129999999999313 z M 269.69192 115.17015 C 291.7276 115.17015 309.61163 133.05418 309.61163 155.08986000000002 C 309.61163 177.12554 291.7276 195.00957000000002 269.69192 195.00957000000002 C 247.65623999999997 195.00957000000002 229.77220999999997 177.12554000000003 229.77220999999997 155.08986000000002 C 229.77220999999997 133.05418000000003 247.65623999999997 115.17015 269.69192 115.17015 z M 269.56228 220 C 291.59796 220 309.48199 237.88403 309.48199 259.91971 C 309.48199 281.95539 291.59796 299.83942 269.56228 299.83942 C 247.52659999999997 299.83942 229.64256999999998 281.95539 229.64256999999998 259.91971 C 229.64256999999998 237.88403 247.52659999999997 220 269.56228 220 z" stroke-linecap="round" />
</g>
</svg>