<?xml version="1.0" encoding="UTF-8" standalone="no" ?>
<!DOCTYPE svg PUBLIC "-//W3C//DTD SVG 1.1//EN" "http://www.w3.org/Graphics/SVG/1.1/DTD/svg11.dtd">
<svg xmlns="http://www.w3.org/2000/svg" xmlns:xlink="http://www.w3.org/1999/xlink" version="1.1" width="500" height="500" viewBox="0 0 500 500" xml:space="preserve">
<desc>Created with Fabric.js 4.6.0</desc>
<defs>
</defs>
<g transform="matrix(1 0 0 1 249.99 250.04)" id="es0HcfyDIY3-IlXr3WmV6"  >
<path style="stroke: rgb(115,80,105); stroke-width: 0; stroke-dasharray: none; stroke-linecap: butt; stroke-dashoffset: 0; stroke-linejoin: miter; stroke-miterlimit: 4; fill: rgb(14,165,233); fill-rule: nonzero; opacity: 1;" vector-effect="non-scaling-stroke"  transform=" translate(-250.22, -250.04)" d="M 0 81.08753 C 0 36.50076 36.14472 0.35604000000000724 80.73149 0.35604000000000724 L 80.73149 500.08399000000003 L 0 500.08399000000003 z M 173.01574 179.89603 C 211.71312999999998 179.89603 243.1197 211.30261 243.1197 249.99999 C 243.1197 288.69738 211.71312 320.10395 173.01574 320.10395 C 134.31835 320.10395 102.91178 288.69737 102.91178 249.99999 C 102.91178 211.30259999999998 134.31835999999998 179.89603 173.01574 179.89603 z M 170.32971 0 C 209.02710000000002 0 240.43367 31.40658 240.43367 70.10396 C 240.43367 108.80135 209.02709000000002 140.20792 170.32971 140.20792 C 131.63232 140.20792 100.22575 108.80134 100.22575 70.10396 C 100.22575 31.406570000000002 131.63233 0 170.32971 0 z M 260.22575 80.73149 C 260.22575 36.14471999999999 296.37047 0 340.95724 0 L 340.95724 499.72795 L 260.22575 499.72795 z M 430.32971 0 C 469.02709999999996 0 500.43367 31.40658 500.43367 70.10396 C 500.43367 108.80135 469.02709 140.20792 430.32971 140.20792 C 391.63232 140.20792 360.22574999999995 108.80134 360.22574999999995 70.10396 C 360.22574999999995 31.406570000000002 391.63232999999997 0 430.32971 0 z M 430.32971 359.79207 C 469.02709999999996 359.79207 500.43367 391.19865000000004 500.43367 429.89603 C 500.43367 468.59342 469.02709 499.99999 430.32971 499.99999 C 391.63232 499.99999 360.22574999999995 468.59341 360.22574999999995 429.89603 C 360.22574999999995 391.19864 391.63232999999997 359.79206999999997 430.32971 359.79206999999997 z M 430.12178 179.79207 C 468.81917 179.79207 500.22574 211.19865 500.22574 249.89603 C 500.22574 288.59342 468.81915999999995 319.99999 430.12177999999994 319.99999 C 391.42438999999996 319.99999 360.0178199999999 288.59341 360.0178199999999 249.89603000000002 C 360.0178199999999 211.19864 391.42439999999993 179.79207000000002 430.12177999999994 179.79207000000002 z" stroke-linecap="round" />
</g>
</svg>
